<?xml version="1.0" encoding="UTF-8"?>
<!DOCTYPE svg PUBLIC "-//W3C//DTD SVG 1.1//EN" "http://www.w3.org/Graphics/SVG/1.1/DTD/svg11.dtd">
<!-- Creator: CorelDRAW X8 -->
<svg xmlns="http://www.w3.org/2000/svg" xml:space="preserve" width="1024px" height="1024px" version="1.1" style="shape-rendering:geometricPrecision; text-rendering:geometricPrecision; image-rendering:optimizeQuality; fill-rule:evenodd; clip-rule:evenodd"
viewBox="0 0 1024 1024"
 xmlns:xlink="http://www.w3.org/1999/xlink">
 <defs>
  <style type="text/css">
   <![CDATA[
    .fil0 {fill:none}
    .fil1 {fill:#402708;fill-rule:nonzero}
    .fil2 {fill:white;fill-rule:nonzero}
   ]]>
  </style>
 </defs>
 <g id="Camada_x0020_1">
  <metadata id="CorelCorpID_0Corel-Layer"/>
  <rect class="fil0" width="1024" height="1024"/>
  <g id="_1876785841344">
   <g>
    <path class="fil1" d="M253 752l-36 0 0 153 37 0c24,0 37,-13 37,-37l0 -12c0,-16 -5,-28 -18,-33 11,-5 15,-15 15,-31l0 -5c0,-24 -10,-35 -35,-35l0 0zm-2 84c11,0 16,4 16,18l0 14c0,11 -5,15 -13,15l-13 0 0 -47 10 0zm1 -62c9,0 12,4 12,15l0 9c0,12 -5,16 -14,16l-9 0 0 -40 11 0zm52 -22l0 116c0,25 12,39 36,39 24,0 36,-14 36,-39l0 -116 -23 0 0 118c0,11 -5,15 -12,15 -8,0 -13,-4 -13,-15l0 -118 -24 0zm163 153c-2,-6 -3,-11 -3,-19l0 -24c0,-15 -4,-27 -16,-32 11,-5 16,-15 16,-31l0 -12c0,-19 -7,-31 -23,-34 0,5 -4,10 -9,11 -3,1 -5,1 -8,1 -7,0 -12,-7 -10,-13l-22 0 0 153 24 0 0 -63 9 0c11,0 15,6 15,20l0 24c0,12 1,15 3,19l24 0zm-39 -131c8,0 12,4 12,15l0 15c0,13 -5,17 -14,17l-10 0 0 -47 12 0zm88 67l11 0 0 28c0,11 -5,15 -12,15 -8,0 -13,-4 -13,-15l0 -82c0,-11 5,-15 13,-15 7,0 12,4 12,15l0 16 23 0 0 -15c0,-10 -2,-19 -7,-25 -1,0 -2,1 -3,1 -1,0 -3,1 -4,1l-5 0c-2,0 -3,0 -4,-1 -3,0 -8,-2 -10,-4l-1 0c-2,0 -3,0 -5,-1 -3,-2 -6,-5 -6,-8 -18,3 -27,16 -27,37l0 80c0,24 12,38 36,38 24,0 36,-14 36,-38l0 -49 -34 0 0 22zm48 -89l0 116c0,25 12,39 36,39 24,0 36,-14 36,-39l0 -107c-1,0 -2,0 -3,0 -5,0 -9,-3 -10,-8 -1,0 -1,-1 -1,-1l-9 0 0 118c0,11 -5,15 -12,15 -8,0 -13,-4 -13,-15l0 -118 -24 0zm112 22l42 0 0 -9c-2,1 -4,1 -6,1 -5,0 -9,-3 -10,-7 -2,-2 -2,-4 -2,-7l-48 0 0 153 66 0 0 -22 -42 0 0 -45 33 0 0 -22 -33 0 0 -42zm131 131c-2,-6 -2,-11 -2,-19l0 -24c0,-15 -4,-27 -16,-32 11,-5 16,-15 16,-31l0 -12c0,-24 -11,-35 -36,-35l-36 0 0 153 24 0 0 -63 8 0c11,0 16,6 16,20l0 24c0,12 1,15 2,19l24 0zm-39 -131c9,0 13,4 13,15l0 15c0,13 -6,17 -15,17l-9 0 0 -47 11 0z"/>
    <path class="fil2" d="M465 732c1,-2 3,-5 4,-7 1,-2 2,-5 3,-7 0,-1 0,-2 -1,-3 -1,-1 -4,0 -5,2 -1,1 -1,3 -1,4 -2,6 -10,14 -13,19 -3,5 -7,9 -12,14 -2,2 -4,4 -7,6 -2,1 -5,4 -7,4 -10,1 -12,-12 -11,-18 2,-10 4,-20 6,-30 5,-17 8,-34 10,-52 3,-19 -10,-29 -26,-33 -8,1 -16,1 -22,6 -6,5 -12,11 -18,16 -1,1 -2,2 -2,2 -3,-4 -5,-7 -8,-10 -9,-9 -20,-10 -29,-3 -2,2 -4,3 -6,6 -1,1 -2,2 -4,4 -6,5 -9,14 -12,21 -1,1 -3,4 -3,1 1,-2 1,-3 2,-5 1,-7 2,-14 2,-21 1,-5 -1,-10 -5,-14 -5,0 -13,1 -16,4 -4,3 -6,9 -8,14 -1,4 -2,9 -3,14 -7,25 -10,52 -17,77 0,2 -1,5 -1,7 0,7 4,11 11,13 4,1 7,2 10,3 6,-3 9,-7 10,-13 0,-3 0,-6 1,-9 4,-18 9,-36 15,-54 4,-11 9,-22 17,-31 3,-3 7,-6 11,-9 1,-2 3,-2 4,-2 3,2 3,4 3,6 0,12 0,23 -3,34 -2,9 -5,18 -8,27 -1,4 -2,8 -3,12 -1,4 1,6 4,9 2,1 4,1 7,-1 5,-4 9,-8 11,-14 3,-7 5,-13 7,-20 3,-9 6,-17 8,-26 2,-7 5,-12 10,-16 6,-6 12,-11 19,-16 1,-1 3,-2 5,-2 4,-2 8,1 10,5 0,1 0,3 0,4 1,5 0,10 -2,14 -5,15 -11,30 -16,46 -3,8 -4,18 -3,27 3,15 15,30 30,32 11,1 18,-2 25,-8 7,-6 13,-12 19,-18 3,-4 5,-8 8,-11zm-178 -34l0 1 0 -1 0 0 0 0zm-3 -15l0 0 0 -1c0,1 0,1 0,1l0 0zm-5 23l0 -2c0,0 0,0 0,0 0,0 0,1 1,2 -1,0 -1,0 -1,0zm7 9c0,1 -1,2 -2,4 -1,-4 -1,-6 3,-8 -1,2 -1,3 -1,4zm-3 -18c0,2 0,3 0,5 0,0 0,0 0,0 0,0 0,0 0,-1 -2,1 -3,2 -4,3 1,-5 2,-11 4,-16 0,-2 1,-4 1,-5 2,5 -1,10 -1,14zm5 12c0,-1 0,-3 0,-4 1,-6 3,-12 4,-18 0,-2 0,-3 2,-3 0,9 -2,17 -6,25zm6 -25c0,-1 0,-2 0,-3 0,0 0,1 1,1 0,0 -1,1 -1,2l0 0zm8 -6c0,0 1,0 1,0 0,0 -1,0 -1,0zm47 -14c2,7 0,19 -5,27 1,-10 5,-18 5,-27zm0 27c0,-1 0,-1 1,-2l0 2 -1 0zm1 -3c0,-1 0,-3 0,-5 1,3 2,5 0,5zm1 -7l0 -1 0 1 0 0zm53 34c0,0 1,0 1,0l0 0c0,0 0,0 -1,0zm-7 17l0 0 0 0 0 0zm1 -14l0 0 0 0c0,0 0,0 0,0zm0 0c-1,-6 2,-10 3,-14 1,5 0,10 -3,14zm4 8l0 -2 1 2c0,0 0,0 -1,0zm3 -4c-1,1 -2,1 -3,1 1,-3 2,-5 3,-8 1,2 1,5 0,7zm-1 -38l0 0 0 0 0 0zm194 28c0,-1 -1,-2 -2,-2 -1,0 -2,1 -3,2 -8,12 -9,15 -17,28 -2,2 -5,5 -7,7 -2,2 -3,4 -8,8 -5,3 -9,3 -14,6 -5,2 -8,3 -15,3 -2,0 -5,-1 -7,-1 -2,-1 -5,-1 -6,-2 -22,-7 -26,-30 -24,-49 0,-3 1,-6 1,-10 1,0 3,1 5,1 2,0 5,-1 7,-1 6,0 12,-1 18,-3 3,-1 5,-2 8,-3 8,-5 13,-11 17,-18 4,-5 7,-11 5,-18 -1,-5 -6,-12 -11,-15 -4,-2 -8,-4 -12,-5 -4,-1 -8,-3 -12,-2 -6,1 -13,2 -19,5 -5,3 -11,5 -15,10 -17,16 -35,45 -29,71 1,5 2,10 4,15 3,8 8,15 15,20 6,5 15,9 23,11 6,2 12,2 19,3 5,0 11,0 17,0 3,0 4,-1 6,-2 3,-1 5,-2 8,-3 4,-1 2,-1 6,-3 10,-5 19,-10 25,-20 0,-1 1,-2 1,-2 5,-7 9,-14 13,-21 1,-2 3,-4 4,-7 0,-1 0,-2 -1,-3zm-94 -37c3,-7 6,-13 10,-18 3,-4 6,-8 11,-10 4,-2 8,0 12,2 1,1 3,2 4,2 4,3 7,8 7,13 0,9 -4,17 -11,22 -10,7 -26,11 -38,8 0,-8 2,-13 5,-19zm-13 -11c1,0 1,0 1,1l-1 3c0,0 0,0 -1,0 0,-2 1,-3 1,-4zm-22 70c-1,-2 -1,-5 -2,-7 0,0 1,0 1,0 0,1 1,2 1,3 1,1 1,2 1,3 0,1 -1,1 -1,1zm18 -63l0 0 0 0 0 0zm282 43c1,-1 1,-2 2,-3 0,-1 1,-2 1,-3 0,-2 -1,-3 -2,-3 0,0 -1,0 -1,0 -1,0 -1,0 -1,1 -2,3 -4,7 -6,11 -2,3 -5,7 -7,10 -5,7 -11,14 -16,21 -4,4 -8,8 -13,12 -3,3 -7,4 -12,6 0,0 -1,0 -2,0 0,0 -1,0 -2,0 -1,0 -2,0 -3,-1 0,0 0,0 0,0 -6,-6 -8,-16 -6,-23 3,-12 6,-24 8,-36 3,-12 12,-34 16,-46 1,-3 3,-6 4,-10 3,-5 2,-6 -2,-11 -1,0 -3,0 -4,0 -12,0 -20,5 -24,15 -5,11 -13,33 -17,45 -1,1 -1,2 -1,3 -2,9 -3,17 -5,26 -1,2 -2,3 -3,5 -6,7 -14,14 -22,20 0,2 -9,5 -11,5 -3,1 -6,2 -11,2 0,0 -1,0 -1,-1 -2,-1 -4,-4 -5,-6 -1,-2 -1,-5 -2,-8 -1,-10 0,-21 2,-31 4,-17 14,-45 19,-62 1,-3 1,-6 -1,-10 -1,0 -2,-1 -2,-1 -9,-5 -14,-5 -20,2 -2,5 -6,9 -8,14 -6,20 -20,52 -18,74 1,11 8,27 19,33 4,2 7,2 11,2 12,0 24,-3 33,-10 5,-4 9,-7 13,-11 1,-1 2,-2 4,-3 1,3 1,4 1,6 3,15 21,27 34,26 2,0 4,0 6,-1 5,-2 11,-5 15,-9 6,-4 11,-9 15,-14 5,-7 10,-13 15,-19 2,-4 5,-7 7,-11 1,-1 2,-3 3,-4 0,-1 0,-1 0,-2zm-71 -5l0 1 0 -1 0 0zm-3 -9c0,1 0,1 1,1 0,0 -1,0 0,1 -1,-1 -1,-1 -1,-1 0,0 0,0 0,-1zm-88 37c0,0 0,0 -1,0 0,0 0,0 0,0 0,0 1,0 1,0 0,0 0,0 0,0zm0 -11c1,1 2,4 0,6 -3,-5 -3,-14 0,-24 0,0 1,0 2,0 -2,6 -2,12 -2,18zm1 -24c0,2 0,4 1,6 -2,-2 -5,-3 -1,-6zm78 16c1,2 1,2 0,4 0,-2 0,-3 0,-4zm3 21c-1,-1 -1,-2 -1,-3 0,0 0,0 1,0 0,1 0,1 1,3l-1 0zm1 -9c-2,-4 -1,-9 2,-12 1,5 -1,8 -2,12zm4 -16c-1,1 -1,2 -2,3 -1,-2 0,-2 2,-3 0,-1 -1,-2 -1,-3l1 0 0 3zm0 -8l0 -1 0 0 0 1z"/>
   </g>
   <g>
    <path class="fil1" d="M704 345c0,106 -86,192 -192,192 -106,0 -192,-86 -192,-192 0,-106 86,-192 192,-192 106,0 192,86 192,192z"/>
    <path class="fil1" d="M512 129c-120,0 -217,97 -217,216 0,120 97,217 217,217 119,0 216,-97 216,-217 0,-119 -97,-216 -216,-216zm0 444c-126,0 -228,-102 -228,-228 0,-125 102,-228 228,-228 125,0 228,103 228,228 0,126 -103,228 -228,228z"/>
    <g>
     <path class="fil2" d="M394 407l0 16c0,12 10,23 23,23l190 0c13,0 23,-11 23,-23l0 -16 -236 0zm213 46l-190 0c-17,0 -31,-13 -31,-30l0 -20c0,-2 2,-4 4,-4l244 0c2,0 4,2 4,4l0 20c0,17 -14,30 -31,30z"/>
     <path class="fil2" d="M568 228l-112 0c-38,0 -69,32 -69,70l0 13 250 0 0 -13c0,-38 -31,-70 -69,-70zm0 8c34,0 61,28 61,62l0 5 -234 0 0 -5c0,-34 27,-62 61,-62l112 0z"/>
     <path class="fil2" d="M399 327c-1,0 -2,1 -2,3l0 13c0,1 1,2 2,2l225 0c1,0 3,-1 3,-2l0 -13c0,-2 -2,-3 -3,-3l-225 0zm225 25l-225 0c-5,0 -9,-4 -9,-9l0 -13c0,-5 4,-10 9,-10l225 0c5,0 9,5 9,10l0 13c0,5 -4,9 -9,9z"/>
     <path class="fil2" d="M399 367c-1,0 -2,1 -2,3l0 13c0,1 1,2 2,2l225 0c1,0 3,-1 3,-2l0 -13c0,-2 -2,-3 -3,-3l-225 0zm225 25l-225 0c-5,0 -9,-4 -9,-9l0 -13c0,-6 4,-10 9,-10l225 0c5,0 9,4 9,10l0 13c0,5 -4,9 -9,9z"/>
    </g>
   </g>
  </g>
 </g>
</svg>
